<svg xmlns="http://www.w3.org/2000/svg" viewBox="0 0 1600 900" role="img" aria-label="Setup con torre y monitor antiguo">
  <defs>
    <linearGradient id="bg2" x1="0" y1="0" x2="1" y2="1">
      <stop offset="0%" stop-color="#2e1830"/>
      <stop offset="100%" stop-color="#57345d"/>
    </linearGradient>
    <linearGradient id="screen2" x1="0" y1="0" x2="0" y2="1">
      <stop offset="0%" stop-color="#ffd97f"/>
      <stop offset="100%" stop-color="#f1ad3f"/>
    </linearGradient>
  </defs>
  <rect width="1600" height="900" fill="url(#bg2)"/>
  <circle cx="220" cy="170" r="140" fill="#ffda8a" opacity="0.2"/>
  <circle cx="1360" cy="720" r="200" fill="#ffc16a" opacity="0.14"/>
  <rect x="290" y="220" width="740" height="430" rx="30" fill="#dfd0aa"/>
  <rect x="335" y="260" width="650" height="300" rx="18" fill="#3f3a35"/>
  <rect x="360" y="285" width="600" height="250" rx="14" fill="url(#screen2)"/>
  <g opacity="0.32" stroke="#7f4c2e" stroke-width="2">
    <path d="M360 330h600M360 380h600M360 430h600M360 480h600"/>
  </g>
  <rect x="580" y="650" width="170" height="48" rx="10" fill="#cdbd98"/>
  <rect x="510" y="695" width="300" height="28" rx="14" fill="#b29f7b"/>
  <rect x="1100" y="240" width="210" height="520" rx="22" fill="#d6c69f"/>
  <rect x="1145" y="290" width="120" height="185" rx="12" fill="#907f62"/>
  <circle cx="1205" cy="540" r="16" fill="#867458"/>
  <rect x="1160" y="590" width="90" height="12" rx="6" fill="#867458"/>
  <rect x="1160" y="620" width="90" height="12" rx="6" fill="#867458"/>
  <rect x="330" y="760" width="980" height="82" rx="24" fill="#c5b58f"/>
</svg>
