<svg xmlns="http://www.w3.org/2000/svg" viewBox="0 0 1600 900" role="img" aria-label="Ordenador CRT vintage">
  <defs>
    <linearGradient id="bg1" x1="0" y1="0" x2="1" y2="1">
      <stop offset="0%" stop-color="#0d2a36"/>
      <stop offset="100%" stop-color="#1f5664"/>
    </linearGradient>
    <linearGradient id="screen1" x1="0" y1="0" x2="0" y2="1">
      <stop offset="0%" stop-color="#9df1d9"/>
      <stop offset="100%" stop-color="#4ec7a7"/>
    </linearGradient>
  </defs>
  <rect width="1600" height="900" fill="url(#bg1)"/>
  <g opacity="0.18" stroke="#d6f2e8" stroke-width="2">
    <path d="M0 120h1600M0 260h1600M0 400h1600M0 540h1600M0 680h1600"/>
    <path d="M180 0v900M420 0v900M660 0v900M900 0v900M1140 0v900M1380 0v900"/>
  </g>
  <rect x="470" y="180" width="660" height="430" rx="36" fill="#d3c7a4"/>
  <rect x="510" y="220" width="580" height="320" rx="20" fill="#2f4d59"/>
  <rect x="535" y="245" width="530" height="270" rx="16" fill="url(#screen1)"/>
  <g fill="#e9ffe7" opacity="0.7" font-family="monospace" font-size="30">
    <text x="565" y="300">C:\&gt; boot retro.exe</text>
    <text x="565" y="350">loading aesthetic.sys</text>
    <text x="565" y="400">ready_</text>
  </g>
  <rect x="730" y="610" width="140" height="70" rx="10" fill="#c7ba96"/>
  <rect x="610" y="680" width="380" height="34" rx="16" fill="#baac87"/>
  <rect x="440" y="730" width="720" height="110" rx="28" fill="#d0c4a1"/>
  <g fill="#9f9372">
    <rect x="500" y="765" width="40" height="14" rx="4"/>
    <rect x="550" y="765" width="40" height="14" rx="4"/>
    <rect x="600" y="765" width="40" height="14" rx="4"/>
    <rect x="650" y="765" width="40" height="14" rx="4"/>
    <rect x="700" y="765" width="40" height="14" rx="4"/>
    <rect x="750" y="765" width="40" height="14" rx="4"/>
    <rect x="800" y="765" width="40" height="14" rx="4"/>
    <rect x="850" y="765" width="40" height="14" rx="4"/>
    <rect x="900" y="765" width="40" height="14" rx="4"/>
    <rect x="950" y="765" width="40" height="14" rx="4"/>
    <rect x="500" y="790" width="490" height="14" rx="4"/>
  </g>
</svg>
