<svg xmlns="http://www.w3.org/2000/svg" viewBox="0 0 1600 900" role="img" aria-label="Ordenador portátil antiguo tipo luggable">
  <defs>
    <linearGradient id="bg4" x1="0" y1="0" x2="1" y2="1">
      <stop offset="0%" stop-color="#173629"/>
      <stop offset="100%" stop-color="#2b6f50"/>
    </linearGradient>
    <linearGradient id="screen4" x1="0" y1="0" x2="0" y2="1">
      <stop offset="0%" stop-color="#b5f6ff"/>
      <stop offset="100%" stop-color="#70d1e1"/>
    </linearGradient>
  </defs>
  <rect width="1600" height="900" fill="url(#bg4)"/>
  <rect x="420" y="130" width="760" height="640" rx="36" fill="#d7cab1"/>
  <rect x="690" y="90" width="220" height="56" rx="16" fill="#c3b598"/>
  <rect x="500" y="220" width="600" height="320" rx="24" fill="#344a50"/>
  <rect x="530" y="250" width="540" height="260" rx="16" fill="url(#screen4)"/>
  <g stroke="#2d7080" stroke-width="2" opacity="0.3">
    <path d="M530 305h540M530 360h540M530 415h540M530 470h540"/>
  </g>
  <rect x="510" y="575" width="580" height="145" rx="20" fill="#c9bb9a"/>
  <g fill="#9f8f72">
    <rect x="550" y="610" width="480" height="18" rx="6"/>
    <rect x="550" y="640" width="480" height="18" rx="6"/>
    <rect x="550" y="670" width="480" height="18" rx="6"/>
  </g>
</svg>
